<svg xmlns="http://www.w3.org/2000/svg" viewBox="0 0 800 800">
    <defs>
        <circle id="grad" r="360" cx="150" fill="none" stroke="#000" stroke-dasharray="188.5 754 1319.5" />
        <polygon id="compass" fill="none" stroke="#000" points="7,7 50,0 7,-7 0,-50 -7,-7 -50,0 -7,7 0,50" />
    </defs>
    <defs>
        <g id="rose">
            <use href="#compass" transform="scale(7,7)" stroke-width="0.143"/>
            <use href="#compass" transform="scale(5,5) rotate(45)" stroke-width="0.167"/>
            <use href="#compass" transform="scale(3,3) rotate(22.5)" stroke-width="0.33"/>
            <use href="#compass" transform="scale(3,3) rotate(67.5)" stroke-width="0.33"/>
        </g>
    </defs>
    <g transform="translate(400,400)">
        <use href="#grad" transform="scale(1,1)" />
        <use href="#grad" transform="scale(0.984,1)" />
        <use href="#grad" transform="scale(0.94,1)" />
        <use href="#grad" transform="scale(0.866,1)" />
        <use href="#grad" transform="scale(0.766,1)" />
        <use href="#grad" transform="scale(0.643,1)" />
        <use href="#grad" transform="scale(0.5,1)" />
        <use href="#grad" transform="scale(0.342,1)" />
        <use href="#grad" transform="scale(0.174,1)" />
        <use href="#grad" transform="scale(0,1)" />
        <use href="#grad" transform="scale(-0.174,1)" />
        <use href="#grad" transform="scale(-0.342,1)" />
        <use href="#grad" transform="scale(-0.5,1)" />
        <use href="#grad" transform="scale(-0.643,1)" />
        <use href="#grad" transform="scale(-0.766,1)" />
        <use href="#grad" transform="scale(-0.866,1)" />
        <use href="#grad" transform="scale(-0.94,1)" />
        <use href="#grad" transform="scale(-0.984,1)" />
        <path d="M0,-360 0,180z" stroke="#000" stroke-width=".2"/>
        <path d="M-360,0 360,0z" stroke="#000" stroke-width="1"/>
    </g>
</svg>