<svg xmlns="http://www.w3.org/2000/svg" viewBox="0 0 1000 1000" width="500" height="500">

    <g id="compass" transform="translate(500 500) rotate(0)">
        <circle r="400" fill="none" stroke="#000" stroke-dasharray=".5 6.48131701" stroke-dashoffset=".15" stroke-width="20"/>
        <circle r="400" fill="none" stroke="#000" stroke-dasharray=".5 34.40658504" stroke-dashoffset=".15" stroke-width="30"/>
        <circle r="400" fill="none" stroke="#000" stroke-dasharray=".5 104.21975512" stroke-dashoffset=".15" stroke-width="40"/>
        <circle r="400" fill="none" stroke-dasharray=".5 156.57963268" stroke-dashoffset=".15" stroke="#F00" stroke-width="40"/>
        <text font-size="10" text-anchor="middle" transform="rotate(0) translate(0 432)">N</text>
        <text font-size="10" text-anchor="middle" transform="rotate(-15) translate(0 432)">15</text>
        <text font-size="10" text-anchor="middle" transform="rotate(-30) translate(0 432)">30</text>
        <text font-size="10" text-anchor="middle" transform="rotate(-45) translate(0 432)">45</text>
        <text font-size="10" text-anchor="middle" transform="rotate(-60) translate(0 432)">60</text>
        <text font-size="10" text-anchor="middle" transform="rotate(-75) translate(0 432)">75</text>
        <text font-size="10" text-anchor="middle" transform="rotate(-90) translate(0 432)">E</text>
        <text font-size="10" text-anchor="middle" transform="rotate(-105) translate(0 432)">105</text>
        <text font-size="10" text-anchor="middle" transform="rotate(-120) translate(0 432)">120</text>
        <text font-size="10" text-anchor="middle" transform="rotate(-135) translate(0 432)">135</text>
        <text font-size="10" text-anchor="middle" transform="rotate(-150) translate(0 432)">150</text>
        <text font-size="10" text-anchor="middle" transform="rotate(-165) translate(0 432)">165</text>
        <text font-size="10" text-anchor="middle" transform="rotate(-180) translate(0 432)">S</text>
        <text font-size="10" text-anchor="middle" transform="rotate(-195) translate(0 432)">195</text>
        <text font-size="10" text-anchor="middle" transform="rotate(-210) translate(0 432)">210</text>
        <text font-size="10" text-anchor="middle" transform="rotate(-225) translate(0 432)">225</text>
        <text font-size="10" text-anchor="middle" transform="rotate(-240) translate(0 432)">240</text>
        <text font-size="10" text-anchor="middle" transform="rotate(-255) translate(0 432)">255</text>
        <text font-size="10" text-anchor="middle" transform="rotate(-270) translate(0 432)">W</text>
        <text font-size="10" text-anchor="middle" transform="rotate(-285) translate(0 432)">285</text>
        <text font-size="10" text-anchor="middle" transform="rotate(-300) translate(0 432)">300</text>
        <text font-size="10" text-anchor="middle" transform="rotate(-315) translate(0 432)">315</text>
        <text font-size="10" text-anchor="middle" transform="rotate(-330) translate(0 432)">330</text>
        <text font-size="10" text-anchor="middle" transform="rotate(-345) translate(0 432)">345</text>
        <text font-size="8" text-anchor="middle" transform="rotate(0) translate(0 422)">0</text>
        <text font-size="8" text-anchor="middle" transform="rotate(-5) translate(0 422)">5</text>
        <text font-size="8" text-anchor="middle" transform="rotate(-10) translate(0 422)">10</text>
        <text font-size="8" text-anchor="middle" transform="rotate(-20) translate(0 422)">20</text>
        <text font-size="8" text-anchor="middle" transform="rotate(-25) translate(0 422)">25</text>
        <text font-size="8" text-anchor="middle" transform="rotate(-22.5) translate(0 422)">NNE</text>
        <text font-size="8" text-anchor="middle" transform="rotate(-35) translate(0 422)">35</text>
        <text font-size="8" text-anchor="middle" transform="rotate(-40) translate(0 422)">40</text>
        <text font-size="8" text-anchor="start" transform="rotate(-45) translate(0 422)">NE</text>
        <text font-size="8" text-anchor="middle" transform="rotate(-50) translate(0 422)">50</text>
        <text font-size="8" text-anchor="middle" transform="rotate(-55) translate(0 422)">55</text>
        <text font-size="8" text-anchor="middle" transform="rotate(-65) translate(0 422)">65</text>
        <text font-size="8" text-anchor="middle" transform="rotate(-70) translate(0 422)">70</text>
        <text font-size="8" text-anchor="middle" transform="rotate(-67.5) translate(0 422)">NEE</text>
        <text font-size="8" text-anchor="middle" transform="rotate(-80) translate(0 422)">80</text>
        <text font-size="8" text-anchor="middle" transform="rotate(-85) translate(0 422)">85</text>
        <text font-size="8" text-anchor="start" transform="rotate(-90) translate(0 422)">90</text>
        <text font-size="8" text-anchor="middle" transform="rotate(-95) translate(0 422)">95</text>
        <text font-size="8" text-anchor="middle" transform="rotate(-95) translate(0 422)">95</text>
        <text font-size="8" text-anchor="middle" transform="rotate(-100) translate(0 422)">100</text>
        <text font-size="8" text-anchor="middle" transform="rotate(-110) translate(0 422)">110</text>
        <text font-size="8" text-anchor="middle" transform="rotate(-112.5) translate(0 422)">SEE</text>
        <text font-size="8" text-anchor="middle" transform="rotate(-115) translate(0 422)">115</text>
        <text font-size="8" text-anchor="middle" transform="rotate(-125) translate(0 422)">125</text>
        <text font-size="8" text-anchor="middle" transform="rotate(-130) translate(0 422)">130</text>
        <text font-size="8" text-anchor="start" transform="rotate(-135) translate(0 422)">SE</text>
        <text font-size="8" text-anchor="middle" transform="rotate(-140) translate(0 422)">140</text>
        <text font-size="8" text-anchor="middle" transform="rotate(-145) translate(0 422)">145</text>
        <text font-size="8" text-anchor="middle" transform="rotate(-155) translate(0 422)">155</text>
        <text font-size="8" text-anchor="middle" transform="rotate(-157.5) translate(0 422)">SSE</text>
        <text font-size="8" text-anchor="middle" transform="rotate(-160) translate(0 422)">160</text>
        <text font-size="8" text-anchor="middle" transform="rotate(-170) translate(0 422)">170</text>
        <text font-size="8" text-anchor="middle" transform="rotate(-175) translate(0 422)">175</text>
        <text font-size="8" text-anchor="start" transform="rotate(-180) translate(0 422)">180</text>
        <text font-size="8" text-anchor="middle" transform="rotate(-185) translate(0 422)">185</text>
        <text font-size="8" text-anchor="middle" transform="rotate(-190) translate(0 422)">190</text>
        <text font-size="8" text-anchor="middle" transform="rotate(-200) translate(0 422)">200</text>
        <text font-size="8" text-anchor="middle" transform="rotate(-202.5) translate(0 422)">SSW</text>
        <text font-size="8" text-anchor="middle" transform="rotate(-205) translate(0 422)">205</text>
        <text font-size="8" text-anchor="middle" transform="rotate(-215) translate(0 422)">215</text>
        <text font-size="8" text-anchor="middle" transform="rotate(-220) translate(0 422)">220</text>
        <text font-size="8" text-anchor="start" transform="rotate(-225) translate(0 422)">SW</text>
        <text font-size="8" text-anchor="middle" transform="rotate(-230) translate(0 422)">230</text>
        <text font-size="8" text-anchor="middle" transform="rotate(-235) translate(0 422)">235</text>
        <text font-size="8" text-anchor="middle" transform="rotate(-245) translate(0 422)">245</text>
        <text font-size="8" text-anchor="middle" transform="rotate(-247.5) translate(0 422)">SWW</text>
        <text font-size="8" text-anchor="middle" transform="rotate(-250) translate(0 422)">250</text>
        <text font-size="8" text-anchor="middle" transform="rotate(-260) translate(0 422)">260</text>
        <text font-size="8" text-anchor="middle" transform="rotate(-265) translate(0 422)">265</text>
        <text font-size="8" text-anchor="start" transform="rotate(-270) translate(0 422)">270</text>
        <text font-size="8" text-anchor="middle" transform="rotate(-275) translate(0 422)">275</text>
        <text font-size="8" text-anchor="middle" transform="rotate(-280) translate(0 422)">280</text>
        <text font-size="8" text-anchor="middle" transform="rotate(-290) translate(0 422)">290</text>
        <text font-size="8" text-anchor="middle" transform="rotate(-292.5) translate(0 422)">NWW</text>
        <text font-size="8" text-anchor="middle" transform="rotate(-295) translate(0 422)">295</text>
        <text font-size="8" text-anchor="middle" transform="rotate(-305) translate(0 422)">305</text>
        <text font-size="8" text-anchor="middle" transform="rotate(-310) translate(0 422)">310</text>
        <text font-size="8" text-anchor="start" transform="rotate(-315) translate(0 422)">NW</text>
        <text font-size="8" text-anchor="middle" transform="rotate(-320) translate(0 422)">320</text>
        <text font-size="8" text-anchor="middle" transform="rotate(-325) translate(0 422)">325</text>
        <text font-size="8" text-anchor="middle" transform="rotate(-335) translate(0 422)">335</text>
        <text font-size="8" text-anchor="middle" transform="rotate(-340) translate(0 422)">340</text>
        <text font-size="8" text-anchor="middle" transform="rotate(-350) translate(0 422)">350</text>
        <text font-size="8" text-anchor="middle" transform="rotate(-355) translate(0 422)">355</text>
        <text font-size="8" text-anchor="middle" transform="rotate(-337.5) translate(0 422)">NNW</text>
    </g>
</svg>
